<?xml version="1.0" encoding="utf-8"?>
<!-- Generator: Adobe Illustrator 24.0.2, SVG Export Plug-In . SVG Version: 6.00 Build 0)  -->
<svg version="1.1" id="Layer_1" xmlns="http://www.w3.org/2000/svg" xmlns:xlink="http://www.w3.org/1999/xlink" x="0px" y="0px"
	 viewBox="0 0 512 512" style="enable-background:new 0 0 512 512;" xml:space="preserve">
<style type="text/css">
	.st0{fill:#196C72;}
	.st1{fill:#EFAF85;}
	.st2{fill:url(#SVGID_1_);}
	.st3{fill:#393E49;}
	.st4{fill:#D5C0BF;}
	.st5{fill:#202B53;}
	.st6{fill:none;stroke:#202B53;stroke-width:3.4388;stroke-linecap:round;stroke-linejoin:round;stroke-miterlimit:10;}
	.st7{fill:#ECD3D3;}
	.st8{opacity:0.5;fill:#D3ECFB;}
	.st9{fill:#FFFFFF;}
	.st10{fill:none;stroke:#D9D9D9;stroke-width:4.4115;stroke-linecap:round;stroke-miterlimit:10;}
	.st11{fill:#DB946F;}
</style>
<path class="st0" d="M317.6256,505.6651c-22.1703-81.0968-61.8768-107.7354-61.8768-107.7354l-50.3496-41.1581
	c-0.1744-0.0506-61.6739-6.9931-61.6739-6.9931s-63.1026,90.1608-71.1599,155.8867H317.6256z"/>
<polygon class="st1" points="143.7254,349.7784 244.8332,389.012 275.3241,313.9042 193.6205,256.7845 163.0821,315.3273 "/>
<path class="st1" d="M162.8187,120.2605c34.4954-76.8985,82.4658-84.9368,147.6427-75.7206
	c73.729,10.4293,98.2811,47.2083,102.4859,87.5059c1.6514,15.8887-6.3609,43.3493-11.9791,59.3681
	c-5.2051,14.8188-9.5876,21.8119-10.6647,27.1055c-2.7785,13.7066,3.1603,38.6847,11.8842,43.8515
	c2.8326,1.6801,2.9093,9.4289,1.8387,10.6549c-2.8709,3.2774-9.4639,3.455-14.9931,8.5906
	c-9.4542,8.7967-9.5778,18.2419-15.8567,22.0207c-5.6052,3.3762-25.0152-4.5378-31.9739,4.6335
	c-9.0855,11.9668,21.5193,14.4818,24.4922,16.5144c6.2433,4.2809-11.1758,22.9293-19.436,34.3237
	c-7.622,10.5184-44.258,11.8523-64.9388-0.6413c-44.9057-27.14-119.6194-62.9187-126.1457-109.6761
	C148.6607,202.0213,154.0278,137.794,162.8187,120.2605z"/>
<linearGradient id="SVGID_1_" gradientUnits="userSpaceOnUse" x1="782.1644" y1="-285.3405" x2="744.7106" y2="-419.5774" gradientTransform="matrix(0.9879 0.1552 -0.1552 0.9879 -526.6485 393.5376)">
	<stop  offset="0.2032" style="stop-color:#EFAF85"/>
	<stop  offset="0.3389" style="stop-color:#EDA37F"/>
	<stop  offset="0.5822" style="stop-color:#E9846F"/>
	<stop  offset="0.6898" style="stop-color:#E77467"/>
</linearGradient>
<path class="st2" d="M396.4141,203.1679c1.3879-3.2936,2.9281-7.1043,4.554-11.754c5.6182-16.0188,13.6305-43.4794,11.9791-59.3681
	c-4.2048-40.2976-28.7569-77.0766-102.4859-87.5059c-65.1769-9.2161-113.1472-1.1779-147.6427,75.7206
	c-3.8654,7.717-7.654,70.3436-9.4796,90.6719L396.4141,203.1679z"/>
<path class="st3" d="M120.4183,154.6511c12.3225-68.1179,55.4116-129.6773,110.6796-142.3836
	c106.4846-24.5078,174.3671,67.0825,198.6903,94.1244c16.6731,18.5528,10.5534,51.1171-18.2667,34.7302
	c-100.1073-56.9928-139.4619-9.2539-139.4619-9.2539s-13.5356,39.138-15.8756,58.3008
	c-2.3376,19.1504-14.7141,39.2655-18.7056,35.0672c-1.572-46.4173-16.435-43.2349-12.1541-59.4286
	c0.8482-3.198-2.8611,28.2867-12.6105,71.6522c-3.243,20.6334-39.8853,72.3288-49.6317,77.8676
	C153.0054,287.1356,112.6218,197.6928,120.4183,154.6511z"/>
<path class="st4" d="M377.8672,273.7529c0,0,4.2211,4.9255,13.0719,6.3135c2.9346-2.9887,16.9969-6.6531,11.4327-8.3812
	C399.9679,270.9425,377.8672,273.7529,377.8672,273.7529z"/>
<g>
	<path class="st5" d="M388.5189,180.1112c-1.4387-4.0995-34.1111-7.6534-39.5354-7.4914
		c-10.9659,0.3239-26.0193,13.4653-24.5612,16.0155c1.4543,2.5339,16.5741-5.812,28.258-3.0835
		c4.5223,1.0666,26.9371,8.4441,30.1507,7.5902C386.0453,192.2685,389.9608,184.2113,388.5189,180.1112z"/>
	<path class="st6" d="M360.283,206.4928c-9.9467-9.3652-31.1576-2.8898-31.1576-2.8898s19.6453,0.0475,29.9763,10.4449"/>
</g>
<path class="st7" d="M258.9085,345.3701c0,0-27.1244-18.5528-33.7396-27.5399c-6.6217-8.9945-6.9547-46.9513-6.9547-46.9513
	l13.6429,40.8283L258.9085,345.3701z"/>
<path class="st1" d="M235.8394,205.8801c-3.7951,20.7121-5.1414,36.4863-20.2204,31.821
	c-15.0783-4.6647-29.7189-22.3921-26.9495-43.27c3.0485-22.9898,17.5049-30.7543,30.5253-30.1417
	C229.4212,164.7883,240.0664,182.8078,235.8394,205.8801z"/>
<g>
	<path class="st8" d="M303.4806,184.0845c-0.8735,5.57-5.0432,9.54-9.3079,8.8793c-4.2654-0.6797-7.0153-5.732-6.1457-11.3027
		c0.8768-5.5702,12.4878-29.0777,12.4878-29.0777S304.3574,178.5138,303.4806,184.0845z"/>
	<g>
		<g>
			<path class="st9" d="M300.5149,152.5835c0,0-2.0807,4.1925-4.8976,10.4833c-1.3938,3.1506-2.8514,6.8948-4.1282,10.9157
				c-1.2195,3.9915-2.2484,8.5046-1.4959,12.4806c0.2888,1.0764,0.454,1.6578,1.1083,2.7505
				c0.4702,0.7428,1.0256,1.4004,1.7593,1.8544c1.41,0.8799,3.3984,0.7752,5.1642,0.0825c1.7366-0.6068,3.36-2.0767,3.9122-3.5856
				c0.7435-1.6546,1.0453-3.4771,1.2481-5.148c0.3688-3.3788,0.162-6.2881-0.0032-8.292c-0.1489-2.0195-0.3304-3.1693-0.3304-3.1693
				s0.3525,1.1082,0.813,3.0965c0.4195,1.9942,0.9496,4.8748,0.9782,8.4443c0.013,1.7854-0.1521,3.7639-0.908,5.8119
				c-0.813,2.2804-2.439,3.9253-4.64,5.1227c-2.0864,1.1434-5.0718,1.7528-7.7203,0.3205
				c-1.2702-0.6667-2.3121-1.7372-3.1056-2.9151c-0.5847-0.8637-1.2644-2.4585-1.5278-3.6331
				c-1.1018-5.2117,0.305-10.048,1.747-14.2275c1.5115-4.2114,3.5089-7.8282,5.2871-10.8584
				C297.3578,156.0645,300.5149,152.5835,300.5149,152.5835z"/>
		</g>
	</g>
</g>
<line class="st10" x1="377.8672" y1="308.1248" x2="399.1075" y2="310.9065"/>
<line class="st10" x1="377.8672" y1="315.3273" x2="395.3695" y2="325.5789"/>
<line class="st10" x1="375.3904" y1="322.8987" x2="385.378" y2="339.5775"/>
<g>
	<path class="st11" d="M399.8026,389.0374c4.4781-2.8202,13.9005-21.5316,16.4188-31.847
		c2.5152-10.3147-2.5723-25.8126-0.9274-34.4512c1.6389-8.6569,11.6968-11.4008,13.1478-1.8419
		c2.6738,17.5941,7.222,36.5345,5.1193,46.2528c-1.1115,5.157-9.7717,22.0395-18.2639,37.8553
		C406.5799,421.2148,395.3123,391.8446,399.8026,389.0374z"/>
	<path class="st11" d="M396.068,386.9288c3.7125-2.7947,10.5593-19.8678,11.9882-29.0905
		c1.4329-9.2221-4.1788-22.3954-3.3911-30.0935c0.7902-7.7046,9.397-10.8487,11.3788-2.6042
		c3.6586,15.2123,9.0543,31.4528,7.9395,40.1292c-0.5847,4.5984-6.9073,20.0201-13.1577,34.4766
		C404.401,414.6086,392.3523,389.736,396.068,386.9288z"/>
	<path class="st11" d="M386.6801,398.6158c3.3665-2.4136,9.8322-17.4671,11.306-25.6479
		c1.4737-8.1808-3.2332-20.0585-2.3662-26.8864c0.8735-6.8279,8.597-9.4444,10.1847-2.0643
		c2.9281,13.6246,7.3873,28.2014,6.2029,35.912c-0.6225,4.0649-6.5866,17.6701-12.465,30.4115
		C393.5016,423.4379,383.3046,401.0295,386.6801,398.6158z"/>
	<path class="st1" d="M357.174,504.7128l12.411-68.6987c0,0-10.5944-25.7241-7.4153-36.6235
		c3.1785-10.8741,4.6933-24.8096,7.4153-29.3443c2.7245-4.5352,14.2086-18.1215,15.7358-21.7032
		c3.6298-8.5561,13.618,3.8426,9.0796,13.8398c-4.5411,9.9721-10.5912,19.0673-9.6825,23.6025
		c0.9079,4.5352,15.1289,9.985,19.6707,7.2664c4.5379-2.7311,14.329-21.2272,17.0536-31.5043
		c2.7252-10.2639-3.15-26.3972-1.3333-35.0157c1.8165-8.6192,12.3251-19.8302,14.1416-2.1152
		c1.8166,17.7079,6.6276,37.7663,4.335,47.4587c-2.4644,10.3914-36.9221,68.3814-36.9221,68.3814l2.8618,64.4561H357.174z"/>
</g>
</svg>
