<?xml version="1.0" encoding="iso-8859-1"?>
<!-- Generator: Adobe Illustrator 23.1.1, SVG Export Plug-In . SVG Version: 6.00 Build 0)  -->
<svg version="1.1" id="_x31_-outline-expand" xmlns="http://www.w3.org/2000/svg" xmlns:xlink="http://www.w3.org/1999/xlink"
	 x="0px" y="0px" viewBox="0 0 64 64" style="enable-background:new 0 0 64 64;" xml:space="preserve">
<path style="fill:#F2DAAE;" d="M3,62V48L1,34V21C1,11.059,9.059,3,19,3c9.941,0,18,8.059,18,18l5,13h-6v4h-4c-1.657,0-3,1.343-3,3
	c0,1.657,1.343,3,3,3h4v6H22v12H3z"/>
<path style="fill:#F2DAAE;" d="M57.081,24.007c-0.602-1.118-1.984-1.555-3.12-0.987c-1.104,0.551-1.592,1.864-1.118,3.004L57,36v8
	c0-1.657-1.343-3-3-3s-3,1.343-3,3v8l4,4v6h8V35L57.081,24.007z"/>
<polygon style="fill:#3A4249;" points="27.447,25.895 26.553,24.105 30.764,22 26.553,19.895 27.447,18.105 35.236,22 "/>
<rect x="38" y="40" style="fill:#D36767;" width="2" height="2"/>
<rect x="42" y="40" style="fill:#D36767;" width="2" height="2"/>
<rect x="42" y="44" style="fill:#D36767;" width="2" height="2"/>
<rect x="42" y="36" style="fill:#D36767;" width="2" height="2"/>
<rect x="46" y="36" style="fill:#D36767;" width="2" height="2"/>
<rect x="46" y="32" style="fill:#D36767;" width="2" height="2"/>
<rect x="46" y="40" style="fill:#D36767;" width="2" height="2"/>
<rect x="46" y="44" style="fill:#D36767;" width="2" height="2"/>
<rect x="46" y="48" style="fill:#D36767;" width="2" height="2"/>
<path style="fill:#EFBC2E;" d="M19,3C9.059,3,1,11.059,1,21v13h2c4.418,0,8-3.582,8-8c-2.209,0-4-1.791-4-4s1.791-4,4-4v-5h20
	c5.523,0,10-4.477,10-10H19z"/>
<rect x="57" y="44" style="fill:#E0C485;" width="2" height="6"/>
<polygon style="fill:#E0C494;" points="22,50 17,50 22,52 "/>
</svg>
