<?xml version="1.0" encoding="UTF-8" standalone="no"?> <svg width="512" height="512" viewBox="0 0 512 512" fill="none" xmlns="http://www.w3.org/2000/svg">
<path d="M182.846 144.032C181.9 144.018 180.946 144 180 144C147.113 144 115.573 157.064 92.3188 180.319C69.0642 203.573 56 235.113 56 268V296L32 352L64 368L72 440H136L152 488L288 424L278.155 389.543C274.142 375.496 274.376 360.575 278.829 346.661L293.429 301.027C317.361 223.508 262.5 145.183 182.846 144.032Z" fill="#F5D3BD"/>
<path d="M184 296L216 304V312C216 316.243 217.686 320.313 220.686 323.314C223.687 326.314 227.757 328 232 328L242.51 306.98C246.12 299.759 248 291.797 248 283.724V264L184 272V296Z" fill="#A83B32"/>
<path d="M104 280C104 288.487 107.371 296.626 113.373 302.627C119.374 308.629 127.513 312 136 312H168C176.487 312 184.626 308.629 190.627 302.627C196.629 296.626 200 288.487 200 280H104Z" fill="#C7463B"/>
<path d="M200 352V400L142 458L136 440L184 392V352H200Z" fill="#F5D3BD"/>
<path d="M162.052 192H220C225.778 192 231.5 193.138 236.838 195.349C242.176 197.561 247.027 200.802 251.113 204.887C255.198 208.973 258.439 213.824 260.651 219.162C262.862 224.5 264 230.222 264 236V236C264 247.67 259.364 258.861 251.113 267.113C242.861 275.364 231.67 280 220 280H88V266.052C88 256.327 89.9154 246.698 93.6369 237.714C97.3583 228.729 102.813 220.566 109.689 213.689C123.577 199.802 142.412 192 162.052 192V192Z" fill="#DC4D41"/>
<path d="M200 352V400L142 458L136 440L184 392V352H200Z" fill="#E8C8B3"/>
<path d="M392 24C375.846 24.0012 360.004 28.4484 346.21 36.8544C332.416 45.2603 321.201 57.3008 313.795 71.6566C306.388 86.0124 303.076 102.13 304.221 118.243C305.365 134.356 310.923 149.843 320.284 163.008L312 192L346.989 187.626C358.63 194.553 371.714 198.698 385.22 199.74C398.726 200.781 412.291 198.69 424.856 193.63C437.422 188.57 448.65 180.678 457.666 170.567C466.681 160.457 473.241 148.402 476.834 135.34C480.427 122.279 480.956 108.565 478.38 95.2659C475.804 81.9668 470.193 69.4419 461.983 58.6669C453.773 47.8919 443.186 39.1577 431.048 33.1447C418.909 27.1317 405.546 24.0022 392 24V24Z" fill="#0094F6"/>
<path d="M376 64H432L408 104H432L376 168L384 120H368L376 64Z" fill="#FBB540"/>
<path d="M224 125.773C222.72 125.772 221.459 125.464 220.322 124.875C219.186 124.286 218.207 123.433 217.469 122.387C216.73 121.342 216.253 120.134 216.077 118.866C215.902 117.598 216.033 116.307 216.459 115.1L227.007 85.328C227.448 84.0851 228.188 82.9702 229.164 82.0827C230.139 81.1952 231.318 80.5625 232.597 80.241L260.948 73.114L271.879 52.283C272.869 50.4123 274.561 49.0103 276.583 48.384C278.605 47.7578 280.792 47.9584 282.667 48.9418C284.541 49.9253 285.949 51.6115 286.583 53.6311C287.216 55.6507 287.024 57.8391 286.047 59.717L273.454 83.717C272.931 84.7139 272.203 85.5891 271.318 86.2856C270.434 86.9821 269.412 87.4842 268.32 87.759L240.656 94.713L231.541 120.443C230.989 122.002 229.968 123.351 228.617 124.306C227.267 125.26 225.654 125.773 224 125.773V125.773Z" fill="#0094F6"/>
<path d="M373.963 352C371.974 352.002 370.057 351.261 368.586 349.922L348.524 331.7C347.691 330.943 347.027 330.018 346.575 328.987C346.124 327.956 345.895 326.841 345.903 325.715L346.129 297.191L323.518 281.9C322.643 281.313 321.892 280.56 321.309 279.683C320.726 278.805 320.322 277.821 320.12 276.788C319.918 275.754 319.922 274.69 320.133 273.658C320.343 272.625 320.755 271.645 321.345 270.772C321.935 269.9 322.692 269.152 323.572 268.573C324.452 267.993 325.437 267.594 326.472 267.396C327.507 267.199 328.57 267.207 329.602 267.422C330.633 267.637 331.612 268.053 332.482 268.647L358.645 286.341C359.737 287.08 360.63 288.077 361.243 289.244C361.857 290.412 362.173 291.712 362.162 293.031L361.931 322.264L379.344 338.081C380.539 339.167 381.377 340.589 381.748 342.161C382.119 343.732 382.006 345.379 381.424 346.885C380.842 348.391 379.817 349.685 378.486 350.598C377.154 351.511 375.578 352 373.963 352Z" fill="#0094F6"/>
<path d="M385.4 264C384.349 264 383.309 263.793 382.339 263.391C381.368 262.989 380.486 262.4 379.743 261.657L358.643 240.557L332.09 244.878C329.996 245.219 327.852 244.714 326.13 243.474C324.408 242.234 323.249 240.361 322.909 238.267C322.568 236.172 323.073 234.028 324.313 232.306C325.553 230.585 327.426 229.426 329.52 229.085L360.12 224.106C361.372 223.902 362.654 223.999 363.861 224.388C365.068 224.778 366.165 225.448 367.062 226.345L387.816 247.1L413.977 240.26C416.03 239.723 418.212 240.024 420.043 241.097C421.874 242.169 423.204 243.924 423.74 245.977C424.277 248.03 423.976 250.212 422.904 252.043C421.831 253.873 420.076 255.203 418.023 255.74L387.423 263.74C386.763 263.913 386.083 264 385.4 264V264Z" fill="#0094F6"/>
<path d="M178.216 123.4C176.983 123.402 175.766 123.119 174.661 122.572C173.556 122.025 172.592 121.23 171.846 120.248L154.366 97.3C153.629 96.331 153.123 95.2066 152.886 94.0124C152.649 92.8182 152.688 91.5858 153 90.409L158.472 69.735L143.359 49.9C142.101 48.2104 141.56 46.0927 141.854 44.0066C142.147 41.9206 143.252 40.0345 144.928 38.758C146.603 37.4814 148.715 36.9174 150.804 37.1883C152.893 37.4592 154.791 38.5432 156.086 40.205L173.566 63.149C174.305 64.118 174.812 65.2429 175.049 66.4378C175.287 67.6327 175.249 68.8661 174.937 70.044L169.465 90.718L184.574 110.55C185.477 111.735 186.031 113.15 186.173 114.633C186.315 116.116 186.041 117.61 185.38 118.945C184.719 120.281 183.698 121.405 182.432 122.192C181.166 122.978 179.706 123.396 178.216 123.397V123.4Z" fill="#0094F6"/>
<path d="M248 232C248 234.122 247.157 236.157 245.657 237.657C244.157 239.157 242.122 240 240 240C238.175 240.002 236.405 240.627 234.984 241.773C233.564 242.919 232.578 244.517 232.19 246.3C234.65 248.545 236.616 251.279 237.961 254.327C239.305 257.374 240 260.669 240 264V276.2C235.014 278.756 229.581 280.325 224 280.82V264C223.997 261.879 223.153 259.846 221.654 258.346C220.154 256.847 218.121 256.003 216 256C213.878 256 211.843 255.157 210.343 253.657C208.843 252.157 208 250.122 208 248C208 245.878 208.843 243.843 210.343 242.343C211.843 240.843 213.878 240 216 240C216.46 240 216.91 240.02 217.36 240.04C219.014 235.355 222.079 231.297 226.133 228.425C230.187 225.553 235.032 224.007 240 224C242.122 224 244.157 224.843 245.657 226.343C247.157 227.843 248 229.878 248 232Z" fill="#A83B32"/>
<path d="M152 272V280H136V272C135.994 267.758 134.307 263.692 131.308 260.692C128.308 257.693 124.242 256.006 120 256C117.878 256 115.843 255.157 114.343 253.657C112.843 252.157 112 250.122 112 248C112 245.878 112.843 243.843 114.343 242.343C115.843 240.843 117.878 240 120 240C128.484 240.01 136.618 243.384 142.617 249.383C148.616 255.382 151.99 263.516 152 272V272Z" fill="#A83B32"/>
<path d="M199.59 242.53C199.258 243.527 198.733 244.448 198.044 245.242C197.356 246.036 196.518 246.686 195.578 247.156C194.638 247.626 193.615 247.906 192.567 247.981C191.519 248.055 190.467 247.922 189.47 247.59C180.039 244.453 171.983 238.15 166.67 229.75C163.839 232.974 160.352 235.556 156.442 237.323C152.533 239.091 148.291 240.004 144 240C141.878 240 139.843 239.157 138.343 237.657C136.843 236.157 136 234.122 136 232C136 229.878 136.843 227.843 138.343 226.343C139.843 224.843 141.878 224 144 224C146.981 224.002 149.887 223.065 152.305 221.322C154.723 219.579 156.53 217.119 157.47 214.29L160 206.7V192.03C160.68 192.01 161.36 192 162.05 192H176V206.7C175.995 212.389 177.783 217.935 181.109 222.55C184.436 227.165 189.131 230.615 194.53 232.41C195.527 232.742 196.448 233.267 197.242 233.956C198.036 234.644 198.686 235.482 199.156 236.422C199.626 237.362 199.906 238.385 199.981 239.433C200.055 240.481 199.922 241.533 199.59 242.53Z" fill="#A83B32"/>
</svg>
